<svg width="68" height="68" viewBox="0 0 68 68" fill="none" xmlns="http://www.w3.org/2000/svg">
<g clip-path="url(#clip0_819_91)" filter="url(#filter0_d_819_91)">
<path d="M64 0H4V60H64V0Z" fill="#FCC111"/>
<path d="M41.7062 21.4277H36.6923C36.3669 21.4275 36.052 21.5421 35.8027 21.7512L27.1627 29.1156C27.1389 29.1364 27.1198 29.162 27.1068 29.1908C27.0937 29.2196 27.0869 29.2509 27.0869 29.2825C27.0869 29.3141 27.0937 29.3454 27.1068 29.3742C27.1198 29.403 27.1389 29.4287 27.1627 29.4495L35.8679 36.733C36.0761 36.9034 36.3372 36.9956 36.6062 36.9938H41.7636C42.0535 36.9938 42.3315 36.8787 42.5365 36.6737C42.7415 36.4687 42.8566 36.1907 42.8566 35.9008V22.5808C42.857 22.4295 42.8275 22.2796 42.7698 22.1397C42.7122 21.9998 42.6275 21.8727 42.5206 21.7656C42.4137 21.6585 42.2868 21.5735 42.1471 21.5156C42.0073 21.4576 41.8575 21.4277 41.7062 21.4277Z" fill="#E30618"/>
<path d="M31.2272 37.0121H26.1533C25.8546 37.0114 25.5684 36.8924 25.3572 36.6812C25.146 36.47 25.0271 36.1838 25.0264 35.8851V22.5964C25.0271 22.2867 25.1504 21.9898 25.3694 21.7708C25.5885 21.5518 25.8853 21.4284 26.1951 21.4277H31.2194C31.2897 21.4277 31.3586 21.4472 31.4186 21.4839C31.4785 21.5207 31.5271 21.5733 31.5589 21.6359C31.5908 21.6986 31.6047 21.7688 31.5991 21.8389C31.5935 21.909 31.5686 21.9761 31.5272 22.033L26.649 28.8312C26.5632 28.9506 26.5171 29.0938 26.5171 29.2408C26.5171 29.3877 26.5632 29.531 26.649 29.6503L31.5325 36.4147C31.5735 36.4708 31.5982 36.5373 31.6037 36.6066C31.6092 36.6759 31.5954 36.7454 31.5638 36.8073C31.5321 36.8693 31.4839 36.9212 31.4245 36.9574C31.3651 36.9935 31.2968 37.0125 31.2272 37.0121Z" fill="#E30618"/>
<path d="M55.1305 12.522H12.8697C12.5929 12.522 12.3275 12.6319 12.1318 12.8276C11.9361 13.0233 11.8262 13.2887 11.8262 13.5655C11.8262 13.8422 11.9361 14.1076 12.1318 14.3033C12.3275 14.499 12.5929 14.6089 12.8697 14.6089H16.7827V47.4785H51.1992V14.6089H55.1305C55.4073 14.6089 55.6727 14.499 55.8684 14.3033C56.0641 14.1076 56.174 13.8422 56.174 13.5655C56.174 13.2887 56.0641 13.0233 55.8684 12.8276C55.6727 12.6319 55.4073 12.522 55.1305 12.522ZM48.3479 43.5655H19.6523V13.8263H48.3479V43.5655Z" fill="white"/>
</g>
<defs>
<filter id="filter0_d_819_91" x="0" y="0" width="68" height="68" filterUnits="userSpaceOnUse" color-interpolation-filters="sRGB">
<feFlood flood-opacity="0" result="BackgroundImageFix"/>
<feColorMatrix in="SourceAlpha" type="matrix" values="0 0 0 0 0 0 0 0 0 0 0 0 0 0 0 0 0 0 127 0" result="hardAlpha"/>
<feOffset dy="4"/>
<feGaussianBlur stdDeviation="2"/>
<feComposite in2="hardAlpha" operator="out"/>
<feColorMatrix type="matrix" values="0 0 0 0 0 0 0 0 0 0 0 0 0 0 0 0 0 0 0.25 0"/>
<feBlend mode="normal" in2="BackgroundImageFix" result="effect1_dropShadow_819_91"/>
<feBlend mode="normal" in="SourceGraphic" in2="effect1_dropShadow_819_91" result="shape"/>
</filter>
<clipPath id="clip0_819_91">
<rect width="60" height="60" fill="white" transform="translate(4)"/>
</clipPath>
</defs>
</svg>
